<?xml version="1.0" encoding="UTF-8" standalone="no"?>
<!-- Created with Inkscape (http://www.inkscape.org/) -->

<svg
   width="186.51813mm"
   height="185.75935mm"
   viewBox="0 0 186.51813 185.75935"
   version="1.1"
   id="svg1"
   xml:space="preserve"
   inkscape:version="1.3.2 (091e20e, 2023-11-25, custom)"
   sodipodi:docname="ararat_main.svg"
   xmlns:inkscape="http://www.inkscape.org/namespaces/inkscape"
   xmlns:sodipodi="http://sodipodi.sourceforge.net/DTD/sodipodi-0.dtd"
   xmlns:xlink="http://www.w3.org/1999/xlink"
   xmlns="http://www.w3.org/2000/svg"
   xmlns:svg="http://www.w3.org/2000/svg"><sodipodi:namedview
     id="namedview1"
     pagecolor="#505050"
     bordercolor="#ffffff"
     borderopacity="1"
     inkscape:showpageshadow="0"
     inkscape:pageopacity="0"
     inkscape:pagecheckerboard="1"
     inkscape:deskcolor="#505050"
     inkscape:document-units="mm"
     inkscape:zoom="0.72426347"
     inkscape:cx="1177.0578"
     inkscape:cy="483.93991"
     inkscape:window-width="1920"
     inkscape:window-height="1009"
     inkscape:window-x="-8"
     inkscape:window-y="-8"
     inkscape:window-maximized="1"
     inkscape:current-layer="layer1" /><defs
     id="defs1"><linearGradient
       id="linearGradient23"
       inkscape:collect="always"><stop
         style="stop-color:#b589fa;stop-opacity:1;"
         offset="0"
         id="stop23" /><stop
         style="stop-color:#f08979;stop-opacity:1;"
         offset="0.5168739"
         id="stop25" /><stop
         style="stop-color:#e85486;stop-opacity:1;"
         offset="1"
         id="stop24" /></linearGradient><linearGradient
       inkscape:collect="always"
       xlink:href="#linearGradient23"
       id="linearGradient29"
       gradientUnits="userSpaceOnUse"
       x1="15.689656"
       y1="126.2396"
       x2="192.77538"
       y2="126.2396"
       gradientTransform="matrix(1.0853802,0,0,1.0853802,248.18801,-18.084634)" /></defs><g
     inkscape:label="Слой 1"
     inkscape:groupmode="layer"
     id="layer1"
     transform="translate(-267.68146,-26.053651)"><circle
       style="fill:none;fill-opacity:1;fill-rule:nonzero;stroke:none;stroke-width:6.59731;stroke-linecap:round;stroke-linejoin:round;stroke-miterlimit:0;stroke-dasharray:none;stroke-opacity:1;paint-order:stroke fill markers"
       id="path22"
       cx="-163.65065"
       cy="-4.3946915"
       r="64.295204"
       transform="rotate(-131.0838)"
       inkscape:label="ararat" /><text
       xml:space="preserve"
       style="font-weight:bold;font-size:16.9333px;line-height:1;font-family:Sans;-inkscape-font-specification:'Sans, Bold';letter-spacing:2.64583px;fill:#ffcc00;fill-opacity:1;fill-rule:nonzero;stroke:#ffffff;stroke-width:6.59731;stroke-linecap:round;stroke-linejoin:round;stroke-miterlimit:0;stroke-dasharray:none;stroke-opacity:1;paint-order:stroke fill markers"
       id="text22"><textPath
         xlink:href="#path22"
         id="textPath22"
         style="font-style:normal;font-variant:normal;font-weight:900;font-stretch:normal;font-size:16.9333px;font-family:Arial;-inkscape-font-specification:'Arial, Heavy';font-variant-ligatures:normal;font-variant-caps:normal;font-variant-numeric:normal;font-variant-east-asian:normal;letter-spacing:2.64583px;fill:#ffffff"><tspan
           id="tspan22"
           style="font-style:normal;font-variant:normal;font-weight:900;font-stretch:normal;font-size:16.9333px;font-family:Arial;-inkscape-font-specification:'Arial, Heavy';font-variant-ligatures:normal;font-variant-caps:normal;font-variant-numeric:normal;font-variant-east-asian:normal;letter-spacing:2.64583px;fill:#ffffff;stroke:none;stroke-width:6.5973"
           dx="0">ARARAT </tspan></textPath></text><circle
       style="fill:none;fill-opacity:1;fill-rule:nonzero;stroke:none;stroke-width:6.59731;stroke-linecap:round;stroke-linejoin:round;stroke-miterlimit:0;stroke-dasharray:none;stroke-opacity:1;paint-order:stroke fill markers"
       id="circle22"
       cx="139.52827"
       cy="85.631241"
       r="64.295204"
       transform="rotate(18.9162)"
       inkscape:label="prod" /><text
       xml:space="preserve"
       style="font-style:normal;font-variant:normal;font-weight:900;font-stretch:normal;font-size:16.9333px;line-height:1;font-family:Arial;-inkscape-font-specification:'Arial, Heavy';font-variant-ligatures:normal;font-variant-caps:normal;font-variant-numeric:normal;font-variant-east-asian:normal;letter-spacing:2.64583px;fill:#ffcc00;fill-opacity:1;fill-rule:nonzero;stroke:none;stroke-width:6.59731;stroke-linecap:round;stroke-linejoin:round;stroke-miterlimit:0;stroke-dasharray:none;stroke-opacity:1;paint-order:stroke fill markers"
       id="text23"><textPath
         xlink:href="#circle22"
         id="textPath23"
         style="fill:#ffffff;stroke-width:6.5973">PRODUCTION</textPath></text><circle
       style="fill:url(#linearGradient29);fill-opacity:1;fill-rule:nonzero;stroke:none;stroke-width:6.44598;stroke-linecap:round;stroke-linejoin:round;stroke-miterlimit:0;stroke-dasharray:none;stroke-opacity:1;paint-order:stroke fill markers"
       id="circle25"
       cx="361.31992"
       cy="118.93333"
       r="92.879677"
       inkscape:export-filename="Desktop\LB_TOOL.png"
       inkscape:export-xdpi="96"
       inkscape:export-ydpi="96" /><rect
       style="fill:none;fill-opacity:1;fill-rule:evenodd;stroke-width:1;stroke-linecap:round;stroke-linejoin:round;stroke-miterlimit:0;paint-order:stroke fill markers"
       id="rect25"
       width="96.442802"
       height="96.442802"
       x="267.68149"
       y="45.298889"
       rx="1.7894561"
       ry="1.7894561" /><circle
       style="fill:none;fill-opacity:1;fill-rule:nonzero;stroke:none;stroke-width:6.59731;stroke-linecap:round;stroke-linejoin:round;stroke-miterlimit:0;stroke-dasharray:none;stroke-opacity:1;paint-order:stroke fill markers"
       id="circle28"
       cx="-327.09167"
       cy="194.18614"
       r="64.295204"
       transform="rotate(-131.0838)"
       inkscape:label="ararat" /><circle
       style="fill:none;fill-opacity:1;fill-rule:nonzero;stroke:none;stroke-width:6.59731;stroke-linecap:round;stroke-linejoin:round;stroke-miterlimit:0;stroke-dasharray:none;stroke-opacity:1;paint-order:stroke fill markers"
       id="circle29"
       cx="380.36276"
       cy="-4.6243024"
       r="64.295204"
       transform="rotate(18.9162)"
       inkscape:label="prod" /><text
       xml:space="preserve"
       style="font-style:normal;font-variant:normal;font-weight:900;font-stretch:normal;font-size:16.9333px;line-height:1;font-family:Arial;-inkscape-font-specification:'Arial, Heavy';font-variant-ligatures:normal;font-variant-caps:normal;font-variant-numeric:normal;font-variant-east-asian:normal;letter-spacing:2.64583px;fill:#ff0000;fill-opacity:1;fill-rule:nonzero;stroke:#ffffff;stroke-width:6.59731;stroke-linecap:round;stroke-linejoin:round;stroke-miterlimit:0;stroke-dasharray:none;stroke-opacity:1;paint-order:stroke fill markers"
       id="text29"><textPath
         xlink:href="#circle30"
         id="textPath32"><tspan
           id="tspan29"
           style="fill:#ffffff;fill-opacity:1;stroke:none;stroke-width:6.5973">LYCEUM BELLS</tspan></textPath></text><text
       xml:space="preserve"
       style="font-style:normal;font-variant:normal;font-weight:900;font-stretch:normal;font-size:16.9333px;line-height:1;font-family:Arial;-inkscape-font-specification:'Arial, Heavy';font-variant-ligatures:normal;font-variant-caps:normal;font-variant-numeric:normal;font-variant-east-asian:normal;letter-spacing:2.64583px;fill:#ff0000;fill-opacity:1;fill-rule:nonzero;stroke:#ffffff;stroke-width:6.59731;stroke-linecap:round;stroke-linejoin:round;stroke-miterlimit:0;stroke-dasharray:none;stroke-opacity:1;paint-order:stroke fill markers"
       id="text30"><textPath
         xlink:href="#circle32"
         id="textPath33"><tspan
           id="tspan30"
           style="fill:#ffffff;fill-opacity:1;stroke:none;stroke-width:6.5973">TOOL</tspan></textPath></text><circle
       style="fill:none;fill-opacity:1;fill-rule:nonzero;stroke:#ffffff;stroke-width:4.95013;stroke-linecap:round;stroke-linejoin:round;stroke-miterlimit:0;stroke-dasharray:none;stroke-opacity:0;paint-order:stroke fill markers"
       id="circle30"
       cx="-379.10016"
       cy="31.309593"
       r="71.326172"
       inkscape:export-filename="Desktop\ararat.svg"
       inkscape:export-xdpi="96"
       inkscape:export-ydpi="96"
       transform="rotate(-157.05904)"
       inkscape:label="lb" /><circle
       style="fill:none;fill-opacity:1;fill-rule:nonzero;stroke:#ffffff;stroke-width:4.95013;stroke-linecap:round;stroke-linejoin:round;stroke-miterlimit:0;stroke-dasharray:none;stroke-opacity:0;paint-order:stroke fill markers"
       id="circle32"
       cx="243.60768"
       cy="-292.15155"
       r="71.326172"
       inkscape:export-filename="Desktop\ararat.svg"
       inkscape:export-xdpi="96"
       inkscape:export-ydpi="96"
       transform="rotate(68.396955)"
       inkscape:label="tool" /><path
       style="fill:#ffffff;stroke-width:1.0063"
       d="m 304.40811,153.46101 c -0.0935,-0.0107 -0.41256,-0.0474 -0.70887,-0.0811 -4.04695,-0.46038 -7.27291,-2.73249 -8.27557,-5.82866 -0.25776,-0.79597 -0.31598,-1.20577 -0.31527,-2.21957 5.2e-4,-0.76961 0.024,-1.04139 0.13263,-1.53116 0.63894,-2.88213 2.78779,-5.49358 5.99135,-7.28108 2.51603,-1.40389 5.80382,-2.15235 8.6208,-1.96251 0.75846,0.0511 1.76864,0.18099 2.02641,0.26052 0.0943,0.0291 0.0993,-0.94849 0.0993,-19.98194 V 94.822927 l 0.58127,-0.12142 c 0.3197,-0.0667 2.53349,-0.51896 4.91955,-1.00488 5.25949,-1.071107 8.00838,-1.631494 17.2397,-3.514486 3.91436,-0.798443 9.74552,-1.987535 12.95812,-2.642406 9.15178,-1.865525 9.97265,-2.033249 10.10891,-2.065459 l 0.12796,-0.03029 -0.0159,25.222744 c -0.0152,24.04039 -0.0207,25.2427 -0.11768,25.64808 -0.47762,1.99464 -1.50941,3.73346 -3.11673,5.25244 -5.17018,4.88599 -14.20226,5.50026 -18.66174,1.26915 -1.14473,-1.08611 -1.77979,-2.14331 -2.17733,-3.62457 -0.1325,-0.49353 -0.14613,-0.64539 -0.14867,-1.64941 -0.003,-0.97611 0.0133,-1.16904 0.1305,-1.64457 0.65416,-2.6437 2.32261,-4.85733 4.99231,-6.62359 2.69091,-1.78029 6.37501,-2.77041 9.54407,-2.56502 0.8273,0.0536 1.44691,0.12876 1.87302,0.22705 0.13197,0.0306 0.25918,0.056 0.28257,0.0567 0.0235,7.7e-4 0.0426,-6.12325 0.0426,-13.6089 0,-11.01097 -0.0139,-13.610283 -0.0725,-13.610283 -0.0399,0 -1.6412,0.320183 -3.55852,0.711533 -1.91731,0.39132 -4.28989,0.8748 -5.27238,1.07439 -0.98249,0.19957 -3.67478,0.74827 -5.98286,1.21933 -2.30807,0.47105 -5.51073,1.12432 -7.11704,1.45168 -1.6063,0.32738 -4.3241,0.88131 -6.03956,1.23097 l -3.11902,0.63575 -0.03,18.82729 -0.03,18.82729 -0.12195,0.48939 c -0.47996,1.92509 -1.45312,3.55456 -3.01897,5.05501 -2.43402,2.33238 -5.77604,3.79179 -9.4453,4.12461 -0.58323,0.053 -1.94206,0.0644 -2.32509,0.0199 z"
       id="path33" /><path
       style="fill:#ffffff;stroke:#ffffff;stroke-width:0.339194"
       d="m 376.70859,146.0726 c -0.20232,-0.0919 -0.46482,-0.30302 -0.58334,-0.46919 l -0.21548,-0.30213 V 118.78159 92.26188 l 0.22436,-0.30041 c 0.29408,-0.39378 0.61587,-0.55216 1.12181,-0.55216 0.5522,0 0.88871,0.19065 1.1632,0.65903 l 0.22786,0.3888 v 26.32445 26.32443 l -0.23298,0.39755 c -0.16037,0.27364 -0.34917,0.45031 -0.60578,0.56682 -0.46584,0.21152 -0.638,0.21187 -1.09965,0.002 z m 10.40848,-11.26581 c -0.15405,-0.067 -0.39636,-0.27434 -0.53848,-0.46066 l -0.25838,-0.33877 v -15.21879 c 0,-12.09686 0.0233,-15.25947 0.11338,-15.41707 0.0624,-0.10906 0.26115,-0.31098 0.44174,-0.44873 0.26309,-0.20066 0.42209,-0.25045 0.79992,-0.25045 0.50951,0 0.81208,0.16226 1.15228,0.61791 l 0.18503,0.24783 v 15.23466 15.23464 l -0.25863,0.33908 c -0.41565,0.54495 -1.03941,0.72038 -1.63686,0.46035 z m -5.35044,-3.55623 c -0.20573,-0.10861 -0.40577,-0.3148 -0.51704,-0.53289 -0.17973,-0.35231 -0.18125,-0.46706 -0.15804,-11.92791 l 0.0234,-11.57217 0.18774,-0.25337 c 0.10326,-0.13935 0.32538,-0.34783 0.4936,-0.46328 0.43753,-0.30029 1.13737,-0.24189 1.53045,0.12772 0.55717,0.5239 0.52562,-0.21516 0.52346,12.26222 -0.002,11.03473 -0.008,11.43575 -0.17274,11.79911 -0.30737,0.67702 -1.19635,0.93781 -1.91087,0.56057 z m 10.73417,-2.78349 c -0.36635,-0.10739 -0.90589,-0.70964 -0.97383,-1.08703 -0.0294,-0.16337 -0.0418,-4.0964 -0.0275,-8.74009 l 0.026,-8.44306 0.25144,-0.32962 c 0.62874,-0.82426 1.69385,-0.79691 2.248,0.0577 l 0.23779,0.36672 v 8.56157 c 0,9.54646 0.0379,8.97173 -0.61981,9.39621 -0.39478,0.25479 -0.77072,0.32641 -1.14205,0.21757 z m -20.94368,-0.51058 c -0.37756,-0.18446 -0.65599,-0.44148 -0.8142,-0.75161 -0.17125,-0.33567 -0.17506,-0.55892 -0.15189,-8.9012 l 0.0238,-8.55689 0.2519,-0.36347 c 0.58232,-0.84022 1.76845,-0.7958 2.30632,0.0864 0.17468,0.2865 0.17834,0.46939 0.17867,8.9172 l 3.4e-4,8.6247 -0.20193,0.29669 c -0.11106,0.16318 -0.30837,0.37552 -0.43847,0.47186 -0.24909,0.18446 -0.92619,0.28788 -1.15451,0.17634 z m 31.17561,-1.85498 c -0.15405,-0.067 -0.39636,-0.27435 -0.53847,-0.46067 l -0.25839,-0.33876 v -6.52049 -6.5205 l 0.25144,-0.32966 c 0.64202,-0.84174 1.67301,-0.79103 2.28172,0.11224 l 0.20406,0.3028 v 6.41806 6.41806 l -0.23292,0.39746 c -0.35247,0.60145 -1.04071,0.81164 -1.70744,0.52146 z m -5.23776,-2.19112 c -0.1704,-0.0914 -0.39189,-0.27604 -0.4922,-0.41035 -0.17661,-0.23647 -0.18316,-0.38155 -0.2073,-4.58727 -0.0276,-4.80946 -0.0274,-4.81132 0.53556,-5.15469 0.709,-0.43244 1.46718,-0.2811 1.89468,0.37818 l 0.24707,0.38104 -0.0249,4.3244 c -0.0243,4.22734 -0.0291,4.33009 -0.21263,4.5777 -0.46503,0.6274 -1.13401,0.81614 -1.74029,0.49099 z m 10.31004,-1.38267 c -0.16772,-0.11146 -0.39581,-0.38252 -0.50687,-0.60236 -0.19629,-0.38855 -0.20193,-0.47634 -0.20193,-3.14377 0,-2.66744 0.006,-2.75524 0.20193,-3.14378 0.49615,-0.98212 1.74601,-1.09348 2.34695,-0.20912 l 0.23323,0.34322 v 2.99009 c 0,3.33125 1.8e-4,3.3301 -0.60516,3.74144 -0.43987,0.2989 -1.03997,0.30883 -1.46815,0.0243 z m -41.63399,-1.13021 c -0.172,-0.0914 -0.40358,-0.29929 -0.51464,-0.462 -0.1919,-0.28112 -0.20193,-0.38031 -0.20193,-1.99658 0,-1.91681 0.0599,-2.16721 0.59792,-2.49973 0.43197,-0.26697 1.2672,-0.21285 1.61118,0.10439 0.42798,0.39472 0.48326,0.66619 0.48326,2.3733 0,1.82279 -0.0783,2.09702 -0.69848,2.44557 -0.43539,0.2447 -0.86082,0.25638 -1.27731,0.035 z m 46.91187,-0.11113 c -0.63597,-0.33563 -0.69099,-0.52915 -0.69137,-2.43164 -1.9e-4,-0.92229 0.0398,-1.78257 0.089,-1.91173 0.0491,-0.12917 0.21965,-0.35392 0.37898,-0.49944 0.25186,-0.23004 0.35852,-0.2646 0.81675,-0.2646 0.64293,0 1.00016,0.18696 1.23639,0.64708 0.14952,0.29123 0.17095,0.53636 0.17095,1.95554 0,1.87315 -0.075,2.14073 -0.69849,2.49113 -0.4382,0.24628 -0.85313,0.25064 -1.30216,0.0137 z m -52.09979,-0.86093 c -0.16401,-0.0808 -0.39623,-0.2912 -0.51603,-0.46751 -0.1921,-0.28269 -0.21784,-0.41938 -0.21784,-1.15677 0,-0.54244 0.0442,-0.92134 0.12587,-1.07855 0.34345,-0.66125 1.3431,-0.94041 1.93827,-0.54128 0.17276,0.11585 0.40786,0.39205 0.52245,0.61377 0.17766,0.34376 0.20308,0.50372 0.17262,1.08615 -0.0409,0.78301 -0.22386,1.17836 -0.69076,1.493 -0.35966,0.24238 -0.90421,0.26327 -1.33458,0.0512 z m 62.43757,-0.0527 c -0.46439,-0.31023 -0.61875,-0.7022 -0.61891,-1.57163 -1.7e-4,-0.90357 0.13794,-1.27014 0.59576,-1.58123 0.65302,-0.44374 1.60263,-0.20991 1.96086,0.48285 0.21419,0.41418 0.18621,1.84729 -0.0434,2.22389 -0.39237,0.64354 -1.28434,0.8536 -1.8943,0.44612 z m 10.41956,0.002 c -0.47349,-0.3232 -0.62817,-0.71176 -0.62817,-1.57801 0,-1.19883 0.3734,-1.71549 1.29308,-1.78922 0.37038,-0.0297 0.5149,0.003 0.76281,0.17328 0.59202,0.40633 0.68134,0.6162 0.68134,1.60097 0,0.75667 -0.0271,0.92086 -0.18774,1.13767 -0.31829,0.42957 -0.73512,0.65723 -1.20331,0.65723 -0.29034,0 -0.51457,-0.063 -0.71801,-0.20192 z m -15.64499,-0.43596 c -0.57339,-0.30253 -0.83311,-1.09283 -0.56553,-1.72081 0.22865,-0.53663 0.53296,-0.72876 1.20506,-0.76085 0.69813,-0.0333 0.95413,0.071 1.24937,0.50908 0.24658,0.3659 0.27907,1.12921 0.0656,1.54195 -0.31144,0.60226 -1.24106,0.80707 -1.95454,0.43063 z m 10.4367,-0.0127 c -0.52571,-0.26531 -0.6393,-0.504 -0.60275,-1.26654 0.0275,-0.57412 0.0511,-0.63564 0.34721,-0.90702 0.40745,-0.3734 0.84545,-0.45749 1.45696,-0.27972 0.39231,0.11405 0.50363,0.1954 0.66828,0.48836 0.38053,0.67707 0.1597,1.72694 -0.42708,2.03038 -0.3811,0.19707 -0.97588,0.17008 -1.44262,-0.0655 z"
       id="path34" /></g></svg>
